<svg width="512" height="450" viewBox="0 0 512 450" fill="none" xmlns="http://www.w3.org/2000/svg">
<path d="M503.191 350.502C503.136 350.406 503.08 350.312 503.023 350.216L312.267 31.7631C312.248 31.7301 312.227 31.6981 312.208 31.6651C303.104 16.6551 288.698 6.08807 271.647 1.91307C254.594 -2.26493 236.938 0.452075 221.927 9.55707C212.924 15.0191 205.279 22.6641 199.819 31.6661C199.8 31.6981 199.78 31.7301 199.761 31.7631L9.00393 350.214C8.94693 350.31 8.89093 350.405 8.83593 350.501C0.0569315 365.704 -2.27607 383.416 2.26693 400.373C6.80993 417.331 17.6829 431.504 32.8869 440.283C42.6469 445.918 53.7619 448.962 65.0299 449.087C65.1059 449.088 65.1819 449.088 65.2579 449.088H446.771C446.847 449.088 446.923 449.088 446.998 449.089C483.235 448.69 512.393 418.884 511.995 382.645C511.87 371.376 508.827 360.26 503.191 350.502ZM446.639 407.726H65.3889C61.2439 407.664 57.1599 406.538 53.5689 404.463C47.9339 401.21 43.9039 395.956 42.2199 389.671C40.5479 383.431 41.3879 376.916 44.5849 371.307L235.211 53.0751C237.232 49.7561 240.057 46.9371 243.38 44.9211C248.944 41.5471 255.49 40.5401 261.809 42.0881C268.114 43.6321 273.442 47.5321 276.818 53.0741L467.44 371.305C469.485 374.893 470.589 378.968 470.634 383.098C470.783 396.499 460.026 407.526 446.639 407.726Z" fill="black"/>
</svg>
