<svg width="24" height="24" viewBox="0 0 106 106" fill="none" xmlns="http://www.w3.org/2000/svg">
<path d="M6.34728 24.9282L76.7833 95.3642L95.3633 76.7832L24.9273 6.34623C24.6253 5.96823 24.2113 5.67523 23.7073 5.54323L2.90428 0.067233C2.86428 0.057233 2.82228 0.057233 2.78328 0.0482329C2.70128 0.0302329 2.62129 0.0192334 2.53629 0.00923338C2.46129 0.00223338 2.38929 0.000233552 2.31429 0.000233548C2.23729 -0.000766455 2.16728 0.00123337 2.08928 0.00923336C2.00528 0.0192334 1.92328 0.0302329 1.84328 0.0482329C1.80328 0.0562329 1.76128 0.056233 1.72228 0.067233C1.69328 0.074233 1.66728 0.0882331 1.63928 0.0982331C1.56128 0.121233 1.48528 0.151234 1.40928 0.184234C1.34228 0.213234 1.27528 0.241234 1.21328 0.274234C1.14728 0.311234 1.08628 0.351233 1.02428 0.395233C0.961284 0.436233 0.898279 0.478233 0.840279 0.525233C0.781279 0.572233 0.731284 0.625234 0.678284 0.677234C0.624284 0.730234 0.573283 0.782234 0.526283 0.840234C0.478283 0.896234 0.436279 0.959233 0.395279 1.02223C0.352279 1.08523 0.311284 1.14623 0.275284 1.21423C0.242284 1.27623 0.21328 1.34223 0.18528 1.40923C0.15228 1.48523 0.122282 1.56023 0.0982818 1.63923C0.0892818 1.66723 0.0752836 1.69323 0.0672836 1.72223C0.0572836 1.76223 0.0572793 1.80323 0.0472793 1.84323C0.0302793 1.92423 0.0192843 2.00523 0.0102843 2.08923C0.00128433 2.16623 -0.00071781 2.23723 0.000282186 2.31323C0.000282183 2.38823 0.00128541 2.46023 0.00828541 2.53623C0.0192854 2.62023 0.0302792 2.70223 0.0472792 2.78323C0.0572792 2.82323 0.0572835 2.86523 0.0672835 2.90423L5.54228 23.7082C5.67428 24.2132 5.96728 24.6282 6.34728 24.9282ZM8.47128 8.47123C9.00628 7.93623 9.21728 7.20423 9.12028 6.50723L21.2143 9.69023L9.68928 21.2162L6.50728 9.12023C7.20428 9.21823 7.93628 9.00823 8.47128 8.47123Z" fill="black"/>
<path d="M79.9416 98.5214L98.5226 79.9414L105.64 87.0584C105.64 87.0584 101.126 99.7144 87.0576 105.638L79.9416 98.5214Z" fill="black"/>
</svg>
