<svg width="20" height="40" viewBox="0 0 106 106" fill="none" xmlns="http://www.w3.org/2000/svg">
<path d="M25.1079 99.473L95.5439 29.037L76.9629 10.457L6.52592 80.893C6.14792 81.195 5.85492 81.609 5.72292 82.113L0.246925 102.916C0.236925 102.956 0.236924 102.998 0.227924 103.037C0.209924 103.119 0.198925 103.199 0.188925 103.284C0.181925 103.359 0.179925 103.431 0.179925 103.506C0.178925 103.583 0.180925 103.653 0.188925 103.731C0.198925 103.815 0.209924 103.897 0.227924 103.977C0.235924 104.017 0.235925 104.059 0.246925 104.098C0.253925 104.127 0.267925 104.153 0.277925 104.181C0.300925 104.259 0.330925 104.335 0.363925 104.411C0.392925 104.478 0.420925 104.545 0.453925 104.607C0.490925 104.673 0.530925 104.734 0.574925 104.796C0.615925 104.859 0.657925 104.922 0.704925 104.98C0.751925 105.039 0.804925 105.089 0.856925 105.142C0.909925 105.196 0.961925 105.247 1.01993 105.294C1.07593 105.342 1.13892 105.384 1.20192 105.425C1.26492 105.468 1.32592 105.509 1.39392 105.545C1.45592 105.578 1.52192 105.607 1.58892 105.635C1.66492 105.668 1.73993 105.698 1.81893 105.722C1.84693 105.731 1.87293 105.745 1.90193 105.753C1.94193 105.763 1.98292 105.763 2.02292 105.773C2.10392 105.79 2.18492 105.801 2.26892 105.81C2.34592 105.819 2.41692 105.821 2.49292 105.82C2.56792 105.82 2.63992 105.819 2.71592 105.812C2.79992 105.801 2.88193 105.79 2.96293 105.773C3.00293 105.763 3.04492 105.763 3.08392 105.753L23.8879 100.278C24.3929 100.146 24.8079 99.853 25.1079 99.473ZM8.65092 97.349C8.11592 96.814 7.38392 96.603 6.68692 96.7L9.86993 84.606L21.3959 96.131L9.29992 99.313C9.39792 98.616 9.18792 97.884 8.65092 97.349Z" fill="black"/>
<path d="M98.7021 25.8796L80.1221 7.29864L87.2391 0.181641C87.2391 0.181641 99.8951 4.69564 105.819 18.7636L98.7021 25.8796Z" fill="black"/>
</svg>
